<svg xmlns="http://www.w3.org/2000/svg" viewBox="0 0 164.7 164.7"><defs><style>.cls-1{isolation:isolate;}.cls-2,.cls-3{fill:#007bfc;}.cls-3{mix-blend-mode:overlay;}</style></defs><g class="cls-1"><g id="katman_2" data-name="katman 2"><g id="OBJECTS"><path class="cls-2" d="M121,73.27a11.14,11.14,0,0,0-7.93,19A33.69,33.69,0,1,1,72.47,51.65a11.15,11.15,0,1,0-1.5-14,47.72,47.72,0,1,0,56.12,56.13A11.14,11.14,0,0,0,121,73.27ZM80.29,38.58a5.14,5.14,0,1,1-5.14,5.13A5.13,5.13,0,0,1,80.29,38.58ZM121,79.28a5.14,5.14,0,1,1-5.13,5.14A5.14,5.14,0,0,1,121,79.28Z"/><path class="cls-2" d="M164.7,84.42A11.15,11.15,0,1,0,146,92.61,66.25,66.25,0,1,1,72.08,18.67a11.15,11.15,0,1,0-.83-14,80.28,80.28,0,1,0,88.8,88.81A11.14,11.14,0,0,0,164.7,84.42ZM80.29,6a5.13,5.13,0,1,1-5.14,5.13A5.13,5.13,0,0,1,80.29,6Zm73.26,73.26a5.14,5.14,0,1,1-5.13,5.14A5.15,5.15,0,0,1,153.55,79.28Z"/><path class="cls-2" d="M132.23,4.21A28.25,28.25,0,0,0,104,31.61c0,.19.05,2.61.06,4a33.38,33.38,0,0,1-27,32.9l-.11,0A16.27,16.27,0,1,0,96.24,87.69a33.34,33.34,0,0,1,32.74-27c.58,0,1.16,0,1.74,0h.06c.48,0,1,0,1.45,0a5.62,5.62,0,0,0,.58,0,28.26,28.26,0,0,0-.58-56.51ZM80.29,92.85a8.14,8.14,0,1,1,8.14-8.14A8.13,8.13,0,0,1,80.29,92.85Zm51.85-47.1a13.28,13.28,0,1,1,13.27-13.28A13.28,13.28,0,0,1,132.14,45.75Z"/><path class="cls-3" d="M152.56,89.45A73,73,0,1,1,75.21,11.91,5.13,5.13,0,0,0,85.35,12q3,.23,6,.71a11.13,11.13,0,0,1-19.24,6A66.24,66.24,0,1,0,146,92.61a11.14,11.14,0,0,1,5.83-19.21c.3,2,.53,4,.68,6a5.14,5.14,0,0,0,0,10.07Z"/><path class="cls-3" d="M132.23,4.22A28.25,28.25,0,0,0,104,31.61c0,.19.06,2.61.06,3.94a33.24,33.24,0,0,1-9.92,23.9,40.38,40.38,0,0,0,11.09,11.17,33.22,33.22,0,0,1,23.76-10c.6,0,1.18,0,1.74,0,0,0,0,0,.06,0,.49,0,1,0,1.46,0h.58a28.25,28.25,0,0,0-.58-56.5Zm-.1,41.53a13.28,13.28,0,1,1,13.29-13.28A13.28,13.28,0,0,1,132.13,45.75Z"/></g></g></g></svg>